<?xml version="1.0" encoding="UTF-8"?>
<svg id="_Слой_2" data-name="Слой 2" xmlns="http://www.w3.org/2000/svg" viewBox="0 0 7946.04 2885.31">
  <g id="Layer_9" data-name="Layer 9">
    <g>
      <path d="m4705.3,2065.19l229.74-824.62c82.72-47.96,230.38-121.94,328.5-118.63-.06.39-.14.58-.24.5,138.02,18.42,93.64,106.64-124.21,925.44-1.03,3.89-3.09,11.63-4.35,17.32,10.21,0,130.33-.01,130.29,0,1.3-4.8,105.24-394.02,167.94-644.35,18.6-80.36,43.83-150.74,35.82-223.77-13.57-132.81-127.12-160.31-208.81-158.55-.03,0-.04.16-.04.46-70.61-.86-166,23.32-293.48,88.96l22.52-89.5h-130.89l-283.68,1026.75h130.89Z"/>
      <polygon points="7815.31 1036.96 7688.89 1492.39 7289.92 1492.39 7415.29 1036.96 7284.55 1036.96 7000.87 2067.78 7131.61 2067.78 7266.96 1576.11 7665.93 1576.11 7531.63 2065.19 7662.36 2065.19 7946.04 1036.96 7815.31 1036.96"/>
      <path d="m6392.09,732.73c-119.87-.14-238.74,23.55-348.78,71.09-90.52,39.1-172.16,92.58-233.02,161.48-14.11,15.61-27.86,34.03-41.29,54.85-.58.38-1.11.87-1.55,1.52-125.48,182.37-231.93,538.08-281.62,716.51-29.13,107.42-89.21,309.95-159.62,453.87-51.16,104.56-149.84,177.92-264.78,196.32-48.21,7.72-102.27,11.56-163.44,12.08-51.15-.43-120.42-1.02-178.32-6.02l.02-.26c-34.48-3.21-64.63-9.94-90.67-19.62-8.68-3.23-16.9-6.78-24.67-10.65-35.14-16.92-64.86-44.68-84.07-77.44-4.8-8.19-8.95-16.7-12.36-25.43-29.41-64.44,3.59-130.44,38.59-184.44-32-10-65,1-93.3,17.33-7.91,4.44-15.7,9.31-23.22,14.64-42.48,28.02-73.48,75.02-65.48,127.02,13,85,77,154,149.5,194.43,7.6,3.84,15.54,7.49,23.83,10.93,41.46,17.18,91.86,29.24,152.51,34.6,66.98,7.31,138.23,7.72,193.74,8.65,216.08,1.74,436.38-44.25,545.68-230.76,3.94-6.46,7.98-14.02,12.13-22.55,70.53-122.01,118.92-284.46,156.54-426.09,71.78-267.52,144.89-575.32,226.69-716.43,65.85-106.79,186.28-217.33,450.99-266.16l-320.48,1242.95h130.18l343.47-1332.41-37.17-.04Z"/>
      <path d="m7057.25,1100.41c-42.9-57.08-134.2-61.52-162.89-61.38-140.04-16.89-331.51,69.91-437.14,261.79-.28.38-.61.95-1.1,1.8-1.11,1.94-2.26,3.98-3.43,6.07-11.9,20.07-23.27,42.57-34.08,66.79-101.8,214.67-263.75,682.18,33.87,692.29,8.49,0,17.21-.51,26.13-1.52,90.54-2.74,210.71-44.17,279.74-80.74-8.89,32.62-20.35,78.57-20.65,79.66h130.95c7.19-26.33,177.95-656.07,214.28-807.51,18.33-76.37-3.59-127.88-25.69-157.27Zm-96.88,127.53c-24.07,100.32-112.53,428.14-168.68,634.99-8.6,6.86-18.76,14.5-30.19,22.5-34.86,26.77-183.28,97.32-288.24,96.3l-.02-.16c-.47.06-.92.09-1.38.14-.06,0-.13,0-.19,0-24.22-.41-45.89-15.63-54.56-38.37-36.35-95.29,21.37-348.46,97.44-554.95,21.46-58.26,54.57-111.61,97.92-155.88,66.91-68.31,149.87-108.29,252.9-109.78,6.23-.1,12.18.05,17.85.43v.02c101.96,10.79,85.5,70.03,77.16,104.77Z"/>
      <path d="m2007.86,32.71c-101.66,37.2-199.73,85.03-339.08,212.74-20.65,18.92-67.92,66.41-95.11,96.16-49.71,54.39-83.87,94.35-124.47,155.61-52.35,78.2-49.12,146.34,32.6,183.74,3.62-47.83,17.78-95.65,45.83-136.74,36.17-57.26,80.17-108.26,125.05-159.14,46.73-53.98,105.37-108.03,160.09-148.9,49.09-36.66,108.97-79.44,171.88-101.84,59.25-21.1,115.53-35.69,175.26-26.85,99.64,14.76,215.61,83.2,152.54,339.47-27.27,110.81-87.72,338.37-155.23,589.46-209.1-.32-449.55-.62-688.75-.74,33.64-112.09,72.88-216.17,115.3-300.87,3.9-7.74,7.83-15.33,11.83-22.79,41.88-75.44,91.88-149.44,165.88-195.44-25-35-81-28-108-16-54,26-84,90-114.02,144.66-4.52,8.12-8.95,16.37-13.3,24.73-60.93,116.98-111.87,261.05-143.31,365.81l-331.95-.12c-265.98,3.07-461.58-4.21-644.5,3.01-65.4,2.58-129.83,17.41-189.51,44.3-46.44,20.92-84.75,46.58-114.86,76.78-92.55,88.76-129.54,216.36-79.94,372.31,28.5,96.6,95.28,195.17,153.32,312.42,141.61,275.09,203.92,434.35,545.01,439.39,58.64,0,196.81-7.84,293.11-64.33,24.89-14.03,31.24-17.75,44.11-27.41,56-42.06,111.35-136.2,176.15-328.28,53.35-158.17,105.94-354.47,156.79-544.3,18.67-69.7,36.48-136.17,54.13-200.16,238.46.11,479.23.4,689.98.72-103.59,384.5-222.77,818.37-255.94,944.07h132.46c12.97-60.29,145.25-520.12,259.47-943.85,301.86.51,521.41,1.12,521.41,1.12,103.16,16.77,127.3-6.26,26.47,369.93h-328.46v83.72h305.78c-23.13,84.74-51.16,185.91-84.43,306.78-11.3,41.04-42.33,73.8-82.77,87.08-15.94,5.23-35.16,9.25-58.31,11.21-.74,0-1.46.02-2.21.03h-221.95c-5.51,0-11,0-16.47-.02-59.03-1.59-143.03,8.41-160.03-65.59-20,46-26,107,15,140,20,16,51,8,77.17,9.33,8.95,0,18.32,0,27.97,0h278.32c187.82-1.54,251.09-72.07,268.08-159.2,14.24-50.16,40.11-141.95,67.85-243.71,7.57-29.38,15.16-58.03,22.64-85.91h137.89l-370.3,1310.19h130.91l226.5-821.38h315.82c3.07.02,6.18,0,9.3-.04v.12c187.83-1.55,242.38-77.53,268.1-163.92,14.89-50.01,40.12-141.98,67.86-243.73,48.37-187.84,98-345.67,108.58-462.87-.22-146.85-144.41-157.47-222.23-155.78-91-.79-209.58-.79-367.82-.06v83.73c.1,0,213.48,0,311.75,0,23.1.14,45.93-.02,66.87,1.51,123.26,18.92,116.46,9.1-94.49,771.48-.6,2.18-1.25,4.35-1.95,6.49-4.35,13.2-20.87,55.8-83.71,72.5-73.74,12.67-189.73,6.36-354.84,6.42l134.69-488.45h-121.32l-.02.08h-138.99c30.78-114.44,56.19-213.36,63.41-293.33-.2-132.73-117.74-157.95-197.8-160.33-7.19-.73-8.85.06-17.56-.18-2.22.02-4.41.05-6.54.1h0c-19.14-.04-217.93-.52-497.67-.99,69.1-258.75,130.52-501.13,154.93-634.09,43.62-279-118.8-485.39-440.23-369.86Zm-973,2061.27c-.9,1.18-1.81,2.33-2.71,3.5-4.13,5.38-11.23,12.58-22.22,20.19-21.38,14.81-45.59,25.04-71,30.61-100.6,22.05-196.02,28.01-235.25,25.49-242.58-21.85-308.18-182.29-437.18-427.39-44.57-99.79-261.71-371.76-75.16-552.53-.04.12-.22.03-.49-.21,19.55-14.52,42.65-27.59,69.57-38.96,48.48-20.47,100.49-31.29,153.1-32.62,215.01-5.42,491.97-.89,825.63-2.71,39.28,0,78.96,0,118.74.02-37.83,117.92-197.79,810.73-323.03,974.6Z"/>
      <path d="m4017.76,2064.91c26.43.02,61.47,0,101.24,0v.02h85.91c4.73.01,9.56-.05,14.47-.2,185.46-2.26,233.18-74.91,265.26-163.64,17.74-49.07,40.12-141.98,67.86-243.73,48.37-187.84,98.01-345.67,108.58-462.87-.22-146.85-144.36-159-222.19-157.31-38.96,0-198.57-.04-236.72,2.53-151.79,7.49-200.99,51.59-227.35,151.45-12.99,49.19-39.57,139.95-67.24,241.38-47.77,180.89-96.57,349.99-109.41,455.84-7.85,148.54,139.01,174.72,219.6,176.53Zm310.43-942.87c8.45.09,17.14-.2,26.12-.08,53.66-.03,94.11.99,123.48,6.61,37.75,10.84,65.54,36.74,55.95,79.48-30.91,137.77-173.98,674.13-181.24,696.65-4.99,15.47-14.14,45.13-54.34,62.68-27.58,9.13-65.27,13.06-117.24,13.79-.06,0-76.33,1.01-130.19,0-21.59-.4-43.15-1.69-64.43-5.31-93.39-15.88-68.47-52.61,118.26-779.94,8.21-31.97,50.59-68.89,123.06-73.29,4.55-.17,9.22-.32,14.01-.43.22,0,.44,0,.67,0h0c2.35-.07,4.72-.12,7.12-.16"/>
    </g>
  </g>
</svg>